<svg width="116" height="21" viewBox="0 0 116 21" fill="none" xmlns="http://www.w3.org/2000/svg">
<path d="M10.688 11.36C11.664 11.568 12.448 12.056 13.04 12.824C13.632 13.576 13.928 14.44 13.928 15.416C13.928 16.824 13.432 17.944 12.44 18.776C11.464 19.592 10.096 20 8.336 20H0.488V3.152H8.072C9.784 3.152 11.12 3.544 12.08 4.328C13.056 5.112 13.544 6.176 13.544 7.52C13.544 8.512 13.28 9.336 12.752 9.992C12.24 10.648 11.552 11.104 10.688 11.36ZM4.592 9.968H7.28C7.952 9.968 8.464 9.824 8.816 9.536C9.184 9.232 9.368 8.792 9.368 8.216C9.368 7.64 9.184 7.2 8.816 6.896C8.464 6.592 7.952 6.44 7.28 6.44H4.592V9.968ZM7.616 16.688C8.304 16.688 8.832 16.536 9.2 16.232C9.584 15.912 9.776 15.456 9.776 14.864C9.776 14.272 9.576 13.808 9.176 13.472C8.792 13.136 8.256 12.968 7.568 12.968H4.592V16.688H7.616ZM28.9323 13.088C28.9323 13.472 28.9083 13.872 28.8603 14.288H19.5723C19.6363 15.12 19.9003 15.76 20.3643 16.208C20.8443 16.64 21.4283 16.856 22.1163 16.856C23.1403 16.856 23.8523 16.424 24.2523 15.56H28.6203C28.3963 16.44 27.9883 17.232 27.3963 17.936C26.8203 18.64 26.0923 19.192 25.2123 19.592C24.3323 19.992 23.3483 20.192 22.2603 20.192C20.9483 20.192 19.7803 19.912 18.7563 19.352C17.7323 18.792 16.9323 17.992 16.3563 16.952C15.7803 15.912 15.4923 14.696 15.4923 13.304C15.4923 11.912 15.7723 10.696 16.3323 9.656C16.9083 8.616 17.7083 7.816 18.7323 7.256C19.7563 6.696 20.9323 6.416 22.2603 6.416C23.5563 6.416 24.7083 6.688 25.7163 7.232C26.7243 7.776 27.5083 8.552 28.0683 9.56C28.6443 10.568 28.9323 11.744 28.9323 13.088ZM24.7323 12.008C24.7323 11.304 24.4923 10.744 24.0123 10.328C23.5323 9.912 22.9323 9.704 22.2123 9.704C21.5243 9.704 20.9403 9.904 20.4603 10.304C19.9963 10.704 19.7083 11.272 19.5963 12.008H24.7323ZM43.7214 13.088C43.7214 13.472 43.6974 13.872 43.6494 14.288H34.3614C34.4254 15.12 34.6894 15.76 35.1534 16.208C35.6334 16.64 36.2174 16.856 36.9054 16.856C37.9294 16.856 38.6414 16.424 39.0414 15.56H43.4094C43.1854 16.44 42.7774 17.232 42.1854 17.936C41.6094 18.64 40.8814 19.192 40.0014 19.592C39.1214 19.992 38.1374 20.192 37.0494 20.192C35.7374 20.192 34.5694 19.912 33.5454 19.352C32.5214 18.792 31.7214 17.992 31.1454 16.952C30.5694 15.912 30.2814 14.696 30.2814 13.304C30.2814 11.912 30.5614 10.696 31.1214 9.656C31.6974 8.616 32.4974 7.816 33.5214 7.256C34.5454 6.696 35.7214 6.416 37.0494 6.416C38.3454 6.416 39.4974 6.688 40.5054 7.232C41.5134 7.776 42.2974 8.552 42.8574 9.56C43.4334 10.568 43.7214 11.744 43.7214 13.088ZM39.5214 12.008C39.5214 11.304 39.2814 10.744 38.8014 10.328C38.3214 9.912 37.7214 9.704 37.0014 9.704C36.3134 9.704 35.7294 9.904 35.2494 10.304C34.7854 10.704 34.4974 11.272 34.3854 12.008H39.5214ZM49.9904 8.84C50.4704 8.104 51.0704 7.528 51.7904 7.112C52.5104 6.68 53.3104 6.464 54.1904 6.464V10.808H53.0624C52.0384 10.808 51.2704 11.032 50.7584 11.48C50.2464 11.912 49.9904 12.68 49.9904 13.784V20H45.8864V6.608H49.9904V8.84ZM68.9921 8.576C68.9921 9.552 68.7681 10.448 68.3201 11.264C67.8721 12.064 67.1841 12.712 66.2561 13.208C65.3281 13.704 64.1761 13.952 62.8001 13.952H60.2561V20H56.1521V3.152H62.8001C64.1441 3.152 65.2801 3.384 66.2081 3.848C67.1361 4.312 67.8321 4.952 68.2961 5.768C68.7601 6.584 68.9921 7.52 68.9921 8.576ZM62.4881 10.688C63.2721 10.688 63.8561 10.504 64.2401 10.136C64.6241 9.768 64.8161 9.248 64.8161 8.576C64.8161 7.904 64.6241 7.384 64.2401 7.016C63.8561 6.648 63.2721 6.464 62.4881 6.464H60.2561V10.688H62.4881ZM75.2326 8.84C75.7126 8.104 76.3126 7.528 77.0326 7.112C77.7526 6.68 78.5526 6.464 79.4326 6.464V10.808H78.3046C77.2806 10.808 76.5126 11.032 76.0006 11.48C75.4886 11.912 75.2326 12.68 75.2326 13.784V20H71.1286V6.608H75.2326V8.84ZM83.4583 5.216C82.7383 5.216 82.1463 5.008 81.6823 4.592C81.2343 4.16 81.0103 3.632 81.0103 3.008C81.0103 2.368 81.2343 1.84 81.6823 1.424C82.1463 0.991999 82.7383 0.775999 83.4583 0.775999C84.1623 0.775999 84.7383 0.991999 85.1863 1.424C85.6503 1.84 85.8823 2.368 85.8823 3.008C85.8823 3.632 85.6503 4.16 85.1863 4.592C84.7383 5.008 84.1623 5.216 83.4583 5.216ZM85.4983 6.608V20H81.3943V6.608H85.4983ZM87.6564 13.304C87.6564 11.912 87.9364 10.696 88.4964 9.656C89.0724 8.616 89.8644 7.816 90.8724 7.256C91.8964 6.696 93.0644 6.416 94.3764 6.416C96.0564 6.416 97.4564 6.856 98.5764 7.736C99.7124 8.616 100.456 9.856 100.808 11.456H96.4404C96.0724 10.432 95.3604 9.92 94.3044 9.92C93.5524 9.92 92.9524 10.216 92.5044 10.808C92.0564 11.384 91.8324 12.216 91.8324 13.304C91.8324 14.392 92.0564 15.232 92.5044 15.824C92.9524 16.4 93.5524 16.688 94.3044 16.688C95.3604 16.688 96.0724 16.176 96.4404 15.152H100.808C100.456 16.72 99.7124 17.952 98.5764 18.848C97.4404 19.744 96.0404 20.192 94.3764 20.192C93.0644 20.192 91.8964 19.912 90.8724 19.352C89.8644 18.792 89.0724 17.992 88.4964 16.952C87.9364 15.912 87.6564 14.696 87.6564 13.304ZM115.628 13.088C115.628 13.472 115.604 13.872 115.556 14.288H106.268C106.332 15.12 106.596 15.76 107.06 16.208C107.54 16.64 108.124 16.856 108.812 16.856C109.836 16.856 110.548 16.424 110.948 15.56H115.316C115.092 16.44 114.684 17.232 114.092 17.936C113.516 18.64 112.788 19.192 111.908 19.592C111.028 19.992 110.044 20.192 108.956 20.192C107.644 20.192 106.476 19.912 105.452 19.352C104.428 18.792 103.628 17.992 103.052 16.952C102.476 15.912 102.188 14.696 102.188 13.304C102.188 11.912 102.468 10.696 103.028 9.656C103.604 8.616 104.404 7.816 105.428 7.256C106.452 6.696 107.628 6.416 108.956 6.416C110.252 6.416 111.404 6.688 112.412 7.232C113.42 7.776 114.204 8.552 114.764 9.56C115.34 10.568 115.628 11.744 115.628 13.088ZM111.428 12.008C111.428 11.304 111.188 10.744 110.708 10.328C110.228 9.912 109.628 9.704 108.908 9.704C108.22 9.704 107.636 9.904 107.156 10.304C106.692 10.704 106.404 11.272 106.292 12.008H111.428Z" fill="#FF8E01"/>
</svg>
