<svg width="50" height="50" viewBox="0 0 50 50" fill="none" xmlns="http://www.w3.org/2000/svg">
<path d="M35.9277 37.29H29.5801C26.543 37.29 24.0674 34.8193 24.0674 31.7773V29.2236C24.0674 26.1865 26.5381 23.7109 29.5801 23.7109H35.9277C38.9648 23.7109 41.4404 26.1816 41.4404 29.2236V31.7773C41.4404 34.8193 38.9648 37.29 35.9277 37.29ZM29.5801 26.7334C28.208 26.7334 27.0898 27.8516 27.0898 29.2236V31.7773C27.0898 33.1494 28.208 34.2676 29.5801 34.2676H35.9277C37.2998 34.2676 38.418 33.1494 38.418 31.7773V29.2236C38.418 27.8516 37.2998 26.7334 35.9277 26.7334H29.5801Z" fill="#262626"/>
<path d="M31.0986 41.499H15.4883C13.8281 41.499 12.4658 40.1416 12.4658 38.4766V17.4854C12.4658 15.8252 13.8232 14.4629 15.4883 14.4629H31.0986C32.7588 14.4629 34.1211 15.8203 34.1211 17.4854V38.4766C34.1211 40.1416 32.7637 41.499 31.0986 41.499Z" fill="#F4BE67"/>
<path d="M31.0986 42.7588H15.4883C13.1299 42.7588 11.2061 40.8398 11.2061 38.4766V17.4854C11.2061 15.127 13.125 13.2031 15.4883 13.2031H31.0986C33.457 13.2031 35.3809 15.1221 35.3809 17.4854V38.4766C35.3809 40.8398 33.4619 42.7588 31.0986 42.7588ZM15.4883 15.7227C14.5166 15.7227 13.7256 16.5137 13.7256 17.4854V38.4766C13.7256 39.4482 14.5166 40.2393 15.4883 40.2393H31.0986C32.0703 40.2393 32.8613 39.4482 32.8613 38.4766V17.4854C32.8613 16.5137 32.0703 15.7227 31.0986 15.7227H15.4883Z" fill="#262626"/>
<path d="M18.457 34.4434H16.4111C16.3525 34.4434 16.3037 34.3945 16.3037 34.3311V24.3994C16.3037 24.3408 16.3525 24.2871 16.4111 24.2871H18.457C18.5156 24.2871 18.5693 24.3359 18.5693 24.3994V34.3359C18.5693 34.3945 18.5205 34.4434 18.457 34.4434ZM24.458 34.4434H22.4121C22.3535 34.4434 22.2998 34.3945 22.2998 34.3311V24.3994C22.2998 24.3408 22.3486 24.2871 22.4121 24.2871H24.458C24.5166 24.2871 24.5703 24.3359 24.5703 24.3994V34.3359C24.5703 34.3945 24.5215 34.4434 24.458 34.4434ZM30.459 34.4434H28.4131C28.3545 34.4434 28.3008 34.3945 28.3008 34.3311V24.3994C28.3008 24.3408 28.3496 24.2871 28.4131 24.2871H30.459C30.5176 24.2871 30.5713 24.3359 30.5713 24.3994V34.3359C30.5713 34.3945 30.5225 34.4434 30.459 34.4434Z" fill="#EAA35E"/>
<path d="M39.1113 17.6465C39.1113 15.249 37.168 13.3057 34.7705 13.3057C33.5254 13.3057 32.4219 13.7305 31.6309 14.5703C31.333 14.2529 30.332 10.332 26.0938 11.3232C25.752 11.4014 25.4004 11.3721 25.0732 11.4502C23.8818 9.53125 21.7578 8.24707 19.3311 8.24707C15.8252 8.24707 12.9443 10.9131 12.6025 14.3311C12.3389 14.2187 12.0508 14.1553 11.748 14.1553C10.5469 14.1553 9.56543 15.1367 9.56543 16.3379V25.8594C9.56543 27.0605 10.5469 28.042 11.748 28.042C12.9492 28.042 13.9307 27.0605 13.9307 25.8594V21.9873H13.9404C14.0039 23.1348 14.9561 24.0625 16.123 24.0625C17.29 24.0625 18.2373 23.1396 18.3057 21.9873H22.6807C22.9541 22.9785 23.8525 23.7109 24.9316 23.7109C25.9814 23.7109 26.8652 23.0127 27.1582 22.0557C27.8174 23.3008 29.1211 24.1553 30.6201 24.1553C32.1436 24.1553 33.4717 23.2666 34.1162 21.9873H34.9121V21.9824C37.2412 21.9043 39.1113 19.9951 39.1113 17.6465Z" fill="white"/>
<path d="M11.748 29.0479C9.99023 29.0479 8.55957 27.6172 8.55957 25.8594V16.3379C8.55957 14.5801 9.99023 13.1494 11.748 13.1494H11.7822C12.6172 9.71191 15.6885 7.24121 19.3262 7.24121C21.8066 7.24121 24.0918 8.40332 25.5566 10.3809C25.6738 10.3711 25.7812 10.3662 25.8594 10.3467C28.5156 9.72656 30.5615 10.6299 31.958 13.0371C32.7686 12.5586 33.7305 12.3047 34.7705 12.3047C37.7197 12.3047 40.1172 14.7021 40.1172 17.6514C40.1172 20.5078 37.9102 22.8271 35.0732 22.9834C35.0195 22.9932 34.9658 22.998 34.9121 22.998H34.6924C33.7842 24.3506 32.2754 25.166 30.6201 25.166C29.3359 25.166 28.1299 24.668 27.2314 23.8037C26.626 24.3799 25.8154 24.7217 24.9316 24.7217C23.7061 24.7217 22.5928 24.043 22.0117 22.998H19.1113C18.6523 24.2139 17.4854 25.0732 16.123 25.0732C15.7031 25.0732 15.3027 24.9902 14.9365 24.8437V25.8643C14.9365 27.6172 13.5059 29.0479 11.748 29.0479ZM11.748 15.1611C11.0986 15.1611 10.5762 15.6885 10.5762 16.333V25.8545C10.5762 26.5039 11.1035 27.0264 11.748 27.0264C12.3975 27.0264 12.9199 26.499 12.9199 25.8545V21.9824C12.9199 21.4258 13.3691 20.9766 13.9258 20.9766C14.458 20.9766 14.9121 21.3965 14.9414 21.9287C14.9756 22.5586 15.4932 23.0518 16.1182 23.0518C16.7432 23.0518 17.2559 22.5586 17.2949 21.9287C17.3242 21.3965 17.7637 20.9766 18.3008 20.9766H22.6758C23.1299 20.9766 23.5254 21.2793 23.6475 21.7187C23.8086 22.2998 24.3311 22.7051 24.9268 22.7051C25.5078 22.7051 26.0156 22.3242 26.1914 21.7627C26.3135 21.3721 26.6553 21.0937 27.0605 21.0596C27.4658 21.0205 27.8564 21.2305 28.042 21.5918C28.5498 22.5537 29.5361 23.1543 30.6104 23.1543C31.709 23.1543 32.7051 22.5342 33.208 21.5381C33.3789 21.1963 33.7256 20.9814 34.1064 20.9814H34.7852C34.8145 20.9766 34.8437 20.9766 34.873 20.9766C36.6797 20.918 38.1006 19.458 38.1006 17.6514C38.1006 15.8154 36.6064 14.3213 34.7705 14.3213C33.7793 14.3213 32.9443 14.6484 32.3633 15.2686C32.1728 15.4736 31.8994 15.6006 31.626 15.5859C31.3477 15.5859 31.0791 15.4687 30.8936 15.2637C30.7422 15.1025 30.6592 14.9219 30.5273 14.6484C29.7998 13.0957 28.7891 11.7334 26.3232 12.3096C26.0742 12.3682 25.8447 12.3828 25.6445 12.3975C25.5127 12.4072 25.3906 12.417 25.3076 12.4365C24.8877 12.5391 24.4434 12.3584 24.2139 11.9873C23.1543 10.2783 21.3281 9.26269 19.3262 9.26269C16.3574 9.26269 13.8965 11.4893 13.5986 14.4385C13.5645 14.7559 13.3838 15.0439 13.1104 15.2051C12.832 15.3662 12.4951 15.3906 12.2021 15.2637C12.0605 15.1953 11.9043 15.1611 11.748 15.1611Z" fill="#262626"/>
<path d="M16.4893 36.6846C16.4893 36.782 16.5085 36.8785 16.5458 36.9686C16.5831 37.0586 16.6377 37.1405 16.7066 37.2094C16.7756 37.2783 16.8574 37.333 16.9474 37.3703C17.0375 37.4076 17.134 37.4268 17.2314 37.4268C17.3289 37.4268 17.4254 37.4076 17.5155 37.3703C17.6055 37.333 17.6873 37.2783 17.7563 37.2094C17.8252 37.1405 17.8798 37.0586 17.9171 36.9686C17.9544 36.8785 17.9736 36.782 17.9736 36.6846C17.9736 36.5871 17.9544 36.4906 17.9171 36.4005C17.8798 36.3105 17.8252 36.2287 17.7563 36.1598C17.6873 36.0908 17.6055 36.0362 17.5155 35.9989C17.4254 35.9616 17.3289 35.9424 17.2314 35.9424C17.134 35.9424 17.0375 35.9616 16.9474 35.9989C16.8574 36.0362 16.7756 36.0908 16.7066 36.1598C16.6377 36.2287 16.5831 36.3105 16.5458 36.4005C16.5085 36.4906 16.4893 36.5871 16.4893 36.6846Z" fill="#F7D5A4"/>
<path d="M27.8955 35.8643C27.8955 36.0611 27.9737 36.2499 28.1129 36.3891C28.2521 36.5283 28.4409 36.6064 28.6377 36.6064C28.8345 36.6064 29.0233 36.5283 29.1625 36.3891C29.3017 36.2499 29.3799 36.0611 29.3799 35.8643C29.3799 35.6674 29.3017 35.4786 29.1625 35.3395C29.0233 35.2003 28.8345 35.1221 28.6377 35.1221C28.4409 35.1221 28.2521 35.2003 28.1129 35.3395C27.9737 35.4786 27.8955 35.6674 27.8955 35.8643Z" fill="#F7D5A4"/>
<path d="M22.6953 36.6846C22.6953 36.782 22.7145 36.8785 22.7518 36.9686C22.7891 37.0586 22.8438 37.1405 22.9127 37.2094C22.9816 37.2783 23.0634 37.333 23.1535 37.3703C23.2435 37.4076 23.34 37.4268 23.4375 37.4268C23.535 37.4268 23.6315 37.4076 23.7215 37.3703C23.8116 37.333 23.8934 37.2783 23.9623 37.2094C24.0312 37.1405 24.0859 37.0586 24.1232 36.9686C24.1605 36.8785 24.1797 36.782 24.1797 36.6846C24.1797 36.5871 24.1605 36.4906 24.1232 36.4005C24.0859 36.3105 24.0312 36.2287 23.9623 36.1598C23.8934 36.0908 23.8116 36.0362 23.7215 35.9989C23.6315 35.9616 23.535 35.9424 23.4375 35.9424C23.34 35.9424 23.2435 35.9616 23.1535 35.9989C23.0634 36.0362 22.9816 36.0908 22.9127 36.1598C22.8438 36.2287 22.7891 36.3105 22.7518 36.4005C22.7145 36.4906 22.6953 36.5871 22.6953 36.6846Z" fill="#F7D5A4"/>
<path d="M25.3955 30.0146C25.3955 30.1121 25.4147 30.2086 25.452 30.2987C25.4893 30.3887 25.544 30.4705 25.6129 30.5395C25.6818 30.6084 25.7636 30.663 25.8537 30.7003C25.9437 30.7376 26.0402 30.7568 26.1377 30.7568C26.2352 30.7568 26.3317 30.7376 26.4217 30.7003C26.5118 30.663 26.5936 30.6084 26.6625 30.5395C26.7314 30.4705 26.7861 30.3887 26.8234 30.2987C26.8607 30.2086 26.8799 30.1121 26.8799 30.0146C26.8799 29.9172 26.8607 29.8207 26.8234 29.7306C26.7861 29.6406 26.7314 29.5588 26.6625 29.4898C26.5936 29.4209 26.5118 29.3663 26.4217 29.329C26.3317 29.2917 26.2352 29.2725 26.1377 29.2725C26.0402 29.2725 25.9437 29.2917 25.8537 29.329C25.7636 29.3663 25.6818 29.4209 25.6129 29.4898C25.544 29.5588 25.4893 29.6406 25.452 29.7306C25.4147 29.8207 25.3955 29.9172 25.3955 30.0146Z" fill="#F7D5A4"/>
<path d="M18.9051 30.9743C18.9337 31.0281 18.9726 31.0758 19.0195 31.1146C19.0665 31.1534 19.1207 31.1826 19.1789 31.2004C19.2372 31.2183 19.2984 31.2245 19.359 31.2187C19.4197 31.2129 19.4786 31.1952 19.5324 31.1667C19.5862 31.1381 19.6339 31.0992 19.6727 31.0522C19.7115 31.0053 19.7406 30.9511 19.7585 30.8928C19.7763 30.8346 19.7825 30.7734 19.7767 30.7127C19.7709 30.6521 19.7532 30.5932 19.7246 30.5394C19.6961 30.4855 19.6572 30.4379 19.6102 30.3991C19.5632 30.3603 19.5091 30.3311 19.4508 30.3132C19.3926 30.2954 19.3314 30.2892 19.2707 30.2949C19.2101 30.3007 19.1512 30.3184 19.0974 30.347C19.0435 30.3755 18.9959 30.4144 18.9571 30.4614C18.9183 30.5084 18.8892 30.5626 18.8713 30.6208C18.8535 30.6791 18.8473 30.7403 18.8531 30.8009C18.8589 30.8616 18.8766 30.9205 18.9051 30.9743Z" fill="#F7D5A4"/>
<path d="M20.7309 26.7465C20.7511 26.7844 20.7785 26.818 20.8116 26.8454C20.8448 26.8728 20.883 26.8933 20.924 26.9059C20.9651 26.9185 21.0083 26.9229 21.051 26.9188C21.0938 26.9147 21.1353 26.9023 21.1733 26.8821C21.2113 26.862 21.2449 26.8345 21.2722 26.8014C21.2996 26.7683 21.3201 26.7301 21.3327 26.689C21.3453 26.6479 21.3497 26.6048 21.3456 26.562C21.3415 26.5192 21.329 26.4777 21.3089 26.4397C21.2887 26.4018 21.2613 26.3682 21.2282 26.3408C21.1951 26.3135 21.1569 26.2929 21.1158 26.2803C21.0747 26.2677 21.0316 26.2633 20.9888 26.2674C20.946 26.2715 20.9045 26.284 20.8665 26.3041C20.8286 26.3243 20.795 26.3517 20.7676 26.3848C20.7403 26.4179 20.7197 26.4561 20.7071 26.4972C20.6945 26.5383 20.6901 26.5814 20.6942 26.6242C20.6983 26.667 20.7108 26.7085 20.7309 26.7465Z" fill="#F7D5A4"/>
<path d="M25.5978 27.082C25.647 27.1746 25.7309 27.2439 25.8312 27.2747C25.9315 27.3054 26.0399 27.2951 26.1326 27.2459C26.2252 27.1967 26.2945 27.1128 26.3253 27.0125C26.356 26.9122 26.3457 26.8038 26.2965 26.7111C26.2721 26.6653 26.239 26.6246 26.1989 26.5915C26.1589 26.5585 26.1127 26.5336 26.0631 26.5184C26.0134 26.5032 25.9612 26.4979 25.9095 26.5028C25.8578 26.5078 25.8076 26.5228 25.7617 26.5472C25.7159 26.5715 25.6752 26.6047 25.6421 26.6447C25.6091 26.6848 25.5842 26.731 25.569 26.7806C25.5538 26.8303 25.5485 26.8825 25.5534 26.9342C25.5584 26.9859 25.5734 27.0361 25.5978 27.082Z" fill="#F7D5A4"/>
<path d="M31.3795 28.2281C31.4038 28.274 31.4369 28.3146 31.477 28.3477C31.5171 28.3808 31.5632 28.4057 31.6129 28.4209C31.6626 28.4361 31.7147 28.4414 31.7665 28.4365C31.8182 28.4316 31.8684 28.4165 31.9143 28.3921C31.9602 28.3678 32.0008 28.3346 32.0339 28.2945C32.067 28.2545 32.0918 28.2083 32.107 28.1586C32.1223 28.109 32.1275 28.0568 32.1226 28.0051C32.1176 27.9533 32.1025 27.9031 32.0782 27.8572C32.0538 27.8113 32.0207 27.7707 31.9806 27.7376C31.9406 27.7045 31.8944 27.6797 31.8447 27.6644C31.7951 27.6492 31.7429 27.6439 31.6912 27.6488C31.6395 27.6538 31.5892 27.6688 31.5433 27.6932C31.4975 27.7175 31.4568 27.7507 31.4237 27.7908C31.3907 27.8308 31.3658 27.877 31.3506 27.9267C31.3354 27.9764 31.3301 28.0285 31.3351 28.0802C31.34 28.132 31.3551 28.1822 31.3795 28.2281Z" fill="#F7D5A4"/>
<path d="M14.9146 30.6892C14.9389 30.7351 14.9721 30.7757 15.0121 30.8088C15.0522 30.8418 15.0983 30.8667 15.148 30.8819C15.1977 30.8971 15.2498 30.9024 15.3015 30.8975C15.3532 30.8926 15.4035 30.8775 15.4493 30.8531C15.4952 30.8288 15.5358 30.7956 15.5689 30.7556C15.602 30.7155 15.6268 30.6694 15.6421 30.6197C15.6573 30.57 15.6626 30.5179 15.6576 30.4662C15.6527 30.4145 15.6376 30.3642 15.6133 30.3184C15.5889 30.2725 15.5558 30.2319 15.5157 30.1988C15.4757 30.1657 15.4295 30.1409 15.3798 30.1256C15.3302 30.1104 15.278 30.1051 15.2263 30.1101C15.1746 30.115 15.1244 30.1301 15.0785 30.1544C15.0326 30.1788 14.992 30.2119 14.9589 30.252C14.9259 30.292 14.901 30.3382 14.8858 30.3879C14.8706 30.4375 14.8653 30.4897 14.8702 30.5414C14.8751 30.5931 14.8902 30.6433 14.9146 30.6892Z" fill="#F7D5A4"/>
</svg>
