<svg width="153" height="61" viewBox="0 0 153 61" fill="none" xmlns="http://www.w3.org/2000/svg">
<path d="M0.827156 9.552C0.827156 7.888 1.18716 6.408 1.90716 5.112C2.62716 3.8 3.62716 2.784 4.90716 2.064C6.20316 1.328 7.66716 0.959999 9.29916 0.959999C11.2992 0.959999 13.0112 1.488 14.4352 2.544C15.8592 3.6 16.8112 5.04 17.2912 6.864H12.7792C12.4432 6.16 11.9632 5.624 11.3392 5.256C10.7312 4.888 10.0352 4.704 9.25116 4.704C7.98716 4.704 6.96316 5.144 6.17916 6.024C5.39516 6.904 5.00316 8.08 5.00316 9.552C5.00316 11.024 5.39516 12.2 6.17916 13.08C6.96316 13.96 7.98716 14.4 9.25116 14.4C10.0352 14.4 10.7312 14.216 11.3392 13.848C11.9632 13.48 12.4432 12.944 12.7792 12.24H17.2912C16.8112 14.064 15.8592 15.504 14.4352 16.56C13.0112 17.6 11.2992 18.12 9.29916 18.12C7.66716 18.12 6.20316 17.76 4.90716 17.04C3.62716 16.304 2.62716 15.288 1.90716 13.992C1.18716 12.696 0.827156 11.216 0.827156 9.552ZM18.9884 11.28C18.9884 9.904 19.2444 8.696 19.7564 7.656C20.2844 6.616 20.9964 5.816 21.8924 5.256C22.7884 4.696 23.7884 4.416 24.8924 4.416C25.8364 4.416 26.6604 4.608 27.3644 4.992C28.0844 5.376 28.6364 5.88 29.0204 6.504V4.608H33.1244V18H29.0204V16.104C28.6204 16.728 28.0604 17.232 27.3404 17.616C26.6364 18 25.8124 18.192 24.8684 18.192C23.7804 18.192 22.7884 17.912 21.8924 17.352C20.9964 16.776 20.2844 15.968 19.7564 14.928C19.2444 13.872 18.9884 12.656 18.9884 11.28ZM29.0204 11.304C29.0204 10.28 28.7324 9.472 28.1564 8.88C27.5964 8.288 26.9084 7.992 26.0924 7.992C25.2764 7.992 24.5804 8.288 24.0044 8.88C23.4444 9.456 23.1644 10.256 23.1644 11.28C23.1644 12.304 23.4444 13.12 24.0044 13.728C24.5804 14.32 25.2764 14.616 26.0924 14.616C26.9084 14.616 27.5964 14.32 28.1564 13.728C28.7324 13.136 29.0204 12.328 29.0204 11.304ZM40.1975 0.24V18H36.0935V0.24H40.1975ZM42.3556 11.304C42.3556 9.912 42.6356 8.696 43.1956 7.656C43.7716 6.616 44.5636 5.816 45.5716 5.256C46.5956 4.696 47.7636 4.416 49.0756 4.416C50.7556 4.416 52.1556 4.856 53.2756 5.736C54.4116 6.616 55.1556 7.856 55.5076 9.456H51.1396C50.7716 8.432 50.0596 7.92 49.0036 7.92C48.2516 7.92 47.6516 8.216 47.2036 8.808C46.7556 9.384 46.5316 10.216 46.5316 11.304C46.5316 12.392 46.7556 13.232 47.2036 13.824C47.6516 14.4 48.2516 14.688 49.0036 14.688C50.0596 14.688 50.7716 14.176 51.1396 13.152H55.5076C55.1556 14.72 54.4116 15.952 53.2756 16.848C52.1396 17.744 50.7396 18.192 49.0756 18.192C47.7636 18.192 46.5956 17.912 45.5716 17.352C44.5636 16.792 43.7716 15.992 43.1956 14.952C42.6356 13.912 42.3556 12.696 42.3556 11.304ZM70.9268 4.608V18H66.8228V16.176C66.4068 16.768 65.8388 17.248 65.1188 17.616C64.4148 17.968 63.6308 18.144 62.7668 18.144C61.7428 18.144 60.8388 17.92 60.0548 17.472C59.2708 17.008 58.6628 16.344 58.2308 15.48C57.7988 14.616 57.5828 13.6 57.5828 12.432V4.608H61.6628V11.88C61.6628 12.776 61.8948 13.472 62.3588 13.968C62.8228 14.464 63.4468 14.712 64.2308 14.712C65.0308 14.712 65.6628 14.464 66.1268 13.968C66.5908 13.472 66.8228 12.776 66.8228 11.88V4.608H70.9268ZM77.9787 0.24V18H73.8747V0.24H77.9787ZM80.1368 11.28C80.1368 9.904 80.3928 8.696 80.9048 7.656C81.4328 6.616 82.1448 5.816 83.0408 5.256C83.9368 4.696 84.9368 4.416 86.0408 4.416C86.9848 4.416 87.8088 4.608 88.5128 4.992C89.2328 5.376 89.7848 5.88 90.1688 6.504V4.608H94.2728V18H90.1688V16.104C89.7688 16.728 89.2088 17.232 88.4888 17.616C87.7848 18 86.9608 18.192 86.0168 18.192C84.9288 18.192 83.9368 17.912 83.0408 17.352C82.1448 16.776 81.4328 15.968 80.9048 14.928C80.3928 13.872 80.1368 12.656 80.1368 11.28ZM90.1688 11.304C90.1688 10.28 89.8808 9.472 89.3048 8.88C88.7448 8.288 88.0568 7.992 87.2408 7.992C86.4248 7.992 85.7288 8.288 85.1528 8.88C84.5928 9.456 84.3128 10.256 84.3128 11.28C84.3128 12.304 84.5928 13.12 85.1528 13.728C85.7288 14.32 86.4248 14.616 87.2408 14.616C88.0568 14.616 88.7448 14.32 89.3048 13.728C89.8808 13.136 90.1688 12.328 90.1688 11.304ZM96.4259 11.28C96.4259 9.904 96.6819 8.696 97.1939 7.656C97.7219 6.616 98.4339 5.816 99.3299 5.256C100.226 4.696 101.226 4.416 102.33 4.416C103.21 4.416 104.01 4.6 104.73 4.968C105.466 5.336 106.042 5.832 106.458 6.456V0.24H110.562V18H106.458V16.08C106.074 16.72 105.522 17.232 104.802 17.616C104.098 18 103.274 18.192 102.33 18.192C101.226 18.192 100.226 17.912 99.3299 17.352C98.4339 16.776 97.7219 15.968 97.1939 14.928C96.6819 13.872 96.4259 12.656 96.4259 11.28ZM106.458 11.304C106.458 10.28 106.17 9.472 105.594 8.88C105.034 8.288 104.346 7.992 103.53 7.992C102.714 7.992 102.018 8.288 101.442 8.88C100.882 9.456 100.602 10.256 100.602 11.28C100.602 12.304 100.882 13.12 101.442 13.728C102.018 14.32 102.714 14.616 103.53 14.616C104.346 14.616 105.034 14.32 105.594 13.728C106.17 13.136 106.458 12.328 106.458 11.304ZM119.627 18.192C118.315 18.192 117.131 17.912 116.075 17.352C115.035 16.792 114.211 15.992 113.603 14.952C113.011 13.912 112.715 12.696 112.715 11.304C112.715 9.928 113.019 8.72 113.627 7.68C114.235 6.624 115.067 5.816 116.123 5.256C117.179 4.696 118.363 4.416 119.675 4.416C120.987 4.416 122.171 4.696 123.227 5.256C124.283 5.816 125.115 6.624 125.723 7.68C126.331 8.72 126.635 9.928 126.635 11.304C126.635 12.68 126.323 13.896 125.699 14.952C125.091 15.992 124.251 16.792 123.179 17.352C122.123 17.912 120.939 18.192 119.627 18.192ZM119.627 14.64C120.411 14.64 121.075 14.352 121.619 13.776C122.179 13.2 122.459 12.376 122.459 11.304C122.459 10.232 122.187 9.408 121.643 8.832C121.115 8.256 120.459 7.968 119.675 7.968C118.875 7.968 118.211 8.256 117.683 8.832C117.155 9.392 116.891 10.216 116.891 11.304C116.891 12.376 117.147 13.2 117.659 13.776C118.187 14.352 118.843 14.64 119.627 14.64ZM132.916 6.84C133.396 6.104 133.996 5.528 134.716 5.112C135.436 4.68 136.236 4.464 137.116 4.464V8.808H135.988C134.964 8.808 134.196 9.032 133.684 9.48C133.172 9.912 132.916 10.68 132.916 11.784V18H128.812V4.608H132.916V6.84ZM138.262 11.28C138.262 9.904 138.518 8.696 139.03 7.656C139.558 6.616 140.27 5.816 141.166 5.256C142.062 4.696 143.062 4.416 144.166 4.416C145.11 4.416 145.934 4.608 146.638 4.992C147.358 5.376 147.91 5.88 148.294 6.504V4.608H152.398V18H148.294V16.104C147.894 16.728 147.334 17.232 146.614 17.616C145.91 18 145.086 18.192 144.142 18.192C143.054 18.192 142.062 17.912 141.166 17.352C140.27 16.776 139.558 15.968 139.03 14.928C138.518 13.872 138.262 12.656 138.262 11.28ZM148.294 11.304C148.294 10.28 148.006 9.472 147.43 8.88C146.87 8.288 146.182 7.992 145.366 7.992C144.55 7.992 143.854 8.288 143.278 8.88C142.718 9.456 142.438 10.256 142.438 11.28C142.438 12.304 142.718 13.12 143.278 13.728C143.854 14.32 144.55 14.616 145.366 14.616C146.182 14.616 146.87 14.32 147.43 13.728C148.006 13.136 148.294 12.328 148.294 11.304ZM15.7189 47.28C15.7189 45.904 15.9749 44.696 16.4869 43.656C17.0149 42.616 17.7269 41.816 18.6229 41.256C19.5189 40.696 20.5189 40.416 21.6229 40.416C22.5029 40.416 23.3029 40.6 24.0229 40.968C24.7589 41.336 25.3349 41.832 25.7509 42.456V36.24H29.8549V54H25.7509V52.08C25.3669 52.72 24.8149 53.232 24.0949 53.616C23.3909 54 22.5669 54.192 21.6229 54.192C20.5189 54.192 19.5189 53.912 18.6229 53.352C17.7269 52.776 17.0149 51.968 16.4869 50.928C15.9749 49.872 15.7189 48.656 15.7189 47.28ZM25.7509 47.304C25.7509 46.28 25.4629 45.472 24.8869 44.88C24.3269 44.288 23.6389 43.992 22.8229 43.992C22.0069 43.992 21.3109 44.288 20.7349 44.88C20.1749 45.456 19.8949 46.256 19.8949 47.28C19.8949 48.304 20.1749 49.12 20.7349 49.728C21.3109 50.32 22.0069 50.616 22.8229 50.616C23.6389 50.616 24.3269 50.32 24.8869 49.728C25.4629 49.136 25.7509 48.328 25.7509 47.304ZM45.4479 47.088C45.4479 47.472 45.4239 47.872 45.3759 48.288H36.0879C36.1519 49.12 36.4159 49.76 36.8799 50.208C37.3599 50.64 37.9439 50.856 38.6319 50.856C39.6559 50.856 40.3679 50.424 40.7679 49.56H45.1359C44.9119 50.44 44.5039 51.232 43.9119 51.936C43.3359 52.64 42.6079 53.192 41.7279 53.592C40.8479 53.992 39.8639 54.192 38.7759 54.192C37.4639 54.192 36.2959 53.912 35.2719 53.352C34.2479 52.792 33.4479 51.992 32.8719 50.952C32.2959 49.912 32.0079 48.696 32.0079 47.304C32.0079 45.912 32.2879 44.696 32.8479 43.656C33.4239 42.616 34.2239 41.816 35.2479 41.256C36.2719 40.696 37.4479 40.416 38.7759 40.416C40.0719 40.416 41.2239 40.688 42.2319 41.232C43.2399 41.776 44.0239 42.552 44.5839 43.56C45.1599 44.568 45.4479 45.744 45.4479 47.088ZM41.2479 46.008C41.2479 45.304 41.0079 44.744 40.5279 44.328C40.0479 43.912 39.4479 43.704 38.7279 43.704C38.0399 43.704 37.4559 43.904 36.9759 44.304C36.5119 44.704 36.2239 45.272 36.1119 46.008H41.2479ZM51.8829 47.304C51.8829 45.912 52.1629 44.696 52.7229 43.656C53.2989 42.616 54.0909 41.816 55.0989 41.256C56.1229 40.696 57.2909 40.416 58.6029 40.416C60.2829 40.416 61.6829 40.856 62.8029 41.736C63.9389 42.616 64.6829 43.856 65.0349 45.456H60.6669C60.2989 44.432 59.5869 43.92 58.5309 43.92C57.7789 43.92 57.1789 44.216 56.7309 44.808C56.2829 45.384 56.0589 46.216 56.0589 47.304C56.0589 48.392 56.2829 49.232 56.7309 49.824C57.1789 50.4 57.7789 50.688 58.5309 50.688C59.5869 50.688 60.2989 50.176 60.6669 49.152H65.0349C64.6829 50.72 63.9389 51.952 62.8029 52.848C61.6669 53.744 60.2669 54.192 58.6029 54.192C57.2909 54.192 56.1229 53.912 55.0989 53.352C54.0909 52.792 53.2989 51.992 52.7229 50.952C52.1629 49.912 51.8829 48.696 51.8829 47.304ZM79.8542 47.088C79.8542 47.472 79.8302 47.872 79.7822 48.288H70.4942C70.5582 49.12 70.8222 49.76 71.2862 50.208C71.7662 50.64 72.3502 50.856 73.0382 50.856C74.0622 50.856 74.7742 50.424 75.1742 49.56H79.5422C79.3182 50.44 78.9102 51.232 78.3182 51.936C77.7422 52.64 77.0142 53.192 76.1342 53.592C75.2542 53.992 74.2702 54.192 73.1822 54.192C71.8702 54.192 70.7022 53.912 69.6782 53.352C68.6542 52.792 67.8542 51.992 67.2782 50.952C66.7022 49.912 66.4142 48.696 66.4142 47.304C66.4142 45.912 66.6942 44.696 67.2542 43.656C67.8302 42.616 68.6302 41.816 69.6542 41.256C70.6782 40.696 71.8542 40.416 73.1822 40.416C74.4782 40.416 75.6302 40.688 76.6382 41.232C77.6462 41.776 78.4302 42.552 78.9902 43.56C79.5662 44.568 79.8542 45.744 79.8542 47.088ZM75.6542 46.008C75.6542 45.304 75.4142 44.744 74.9342 44.328C74.4542 43.912 73.8542 43.704 73.1342 43.704C72.4462 43.704 71.8622 43.904 71.3822 44.304C70.9182 44.704 70.6302 45.272 70.5182 46.008H75.6542ZM86.1233 42.84C86.6033 42.104 87.2033 41.528 87.9233 41.112C88.6433 40.68 89.4433 40.464 90.3233 40.464V44.808H89.1953C88.1713 44.808 87.4033 45.032 86.8913 45.48C86.3793 45.912 86.1233 46.68 86.1233 47.784V54H82.0193V40.608H86.1233V42.84ZM98.3089 50.16L101.213 40.608H105.581L100.829 54H95.7649L91.0129 40.608H95.4049L98.3089 50.16ZM119.932 47.088C119.932 47.472 119.908 47.872 119.86 48.288H110.572C110.636 49.12 110.9 49.76 111.364 50.208C111.844 50.64 112.428 50.856 113.116 50.856C114.14 50.856 114.852 50.424 115.252 49.56H119.62C119.396 50.44 118.988 51.232 118.396 51.936C117.82 52.64 117.092 53.192 116.212 53.592C115.332 53.992 114.348 54.192 113.26 54.192C111.948 54.192 110.78 53.912 109.756 53.352C108.732 52.792 107.932 51.992 107.356 50.952C106.78 49.912 106.492 48.696 106.492 47.304C106.492 45.912 106.772 44.696 107.332 43.656C107.908 42.616 108.708 41.816 109.732 41.256C110.756 40.696 111.932 40.416 113.26 40.416C114.556 40.416 115.708 40.688 116.716 41.232C117.724 41.776 118.508 42.552 119.068 43.56C119.644 44.568 119.932 45.744 119.932 47.088ZM115.732 46.008C115.732 45.304 115.492 44.744 115.012 44.328C114.532 43.912 113.932 43.704 113.212 43.704C112.524 43.704 111.94 43.904 111.46 44.304C110.996 44.704 110.708 45.272 110.596 46.008H115.732ZM124.137 39.216C123.417 39.216 122.825 39.008 122.361 38.592C121.913 38.16 121.689 37.632 121.689 37.008C121.689 36.368 121.913 35.84 122.361 35.424C122.825 34.992 123.417 34.776 124.137 34.776C124.841 34.776 125.417 34.992 125.865 35.424C126.329 35.84 126.561 36.368 126.561 37.008C126.561 37.632 126.329 38.16 125.865 38.592C125.417 39.008 124.841 39.216 124.137 39.216ZM126.201 55.728C126.201 57.376 125.785 58.56 124.953 59.28C124.121 60.016 122.961 60.384 121.473 60.384H119.865V56.904H120.849C121.297 56.904 121.617 56.816 121.809 56.64C122.001 56.464 122.097 56.176 122.097 55.776V40.608H126.201V55.728ZM128.336 47.28C128.336 45.904 128.592 44.696 129.104 43.656C129.632 42.616 130.344 41.816 131.24 41.256C132.136 40.696 133.136 40.416 134.24 40.416C135.184 40.416 136.008 40.608 136.712 40.992C137.432 41.376 137.984 41.88 138.368 42.504V40.608H142.472V54H138.368V52.104C137.968 52.728 137.408 53.232 136.688 53.616C135.984 54 135.16 54.192 134.216 54.192C133.128 54.192 132.136 53.912 131.24 53.352C130.344 52.776 129.632 51.968 129.104 50.928C128.592 49.872 128.336 48.656 128.336 47.28ZM138.368 47.304C138.368 46.28 138.08 45.472 137.504 44.88C136.944 44.288 136.256 43.992 135.44 43.992C134.624 43.992 133.928 44.288 133.352 44.88C132.792 45.456 132.512 46.256 132.512 47.28C132.512 48.304 132.792 49.12 133.352 49.728C133.928 50.32 134.624 50.616 135.44 50.616C136.256 50.616 136.944 50.32 137.504 49.728C138.08 49.136 138.368 48.328 138.368 47.304Z" fill="#FF8E01"/>
</svg>
